<svg id="_x31_" height="512" viewBox="0 0 24 24" width="512" xmlns="http://www.w3.org/2000/svg"><path d="m20.5 20h-2c-.276 0-.5-.224-.5-.5v-5c0-.276.224-.5.5-.5h2c.827 0 1.5.673 1.5 1.5v3c0 .827-.673 1.5-1.5 1.5zm-1.5-1h1.5c.275 0 .5-.224.5-.5v-3c0-.276-.225-.5-.5-.5h-1.5z"/><path d="m2.5 20c-.276 0-.5-.224-.5-.5v-4c0-.827.673-1.5 1.5-1.5h2c.276 0 .5.224.5.5s-.224.5-.5.5h-2c-.275 0-.5.224-.5.5v4c0 .276-.224.5-.5.5z"/><path d="m5.5 18h-3c-.276 0-.5-.224-.5-.5s.224-.5.5-.5h3c.276 0 .5.224.5.5s-.224.5-.5.5z"/><path d="m15.5 20h-1.5c-.827 0-1.5-.673-1.5-1.5v-3c0-.827.673-1.5 1.5-1.5h1.5c.827 0 1.5.673 1.5 1.5v3c0 .827-.673 1.5-1.5 1.5zm-1.5-5c-.275 0-.5.224-.5.5v3c0 .276.225.5.5.5h1.5c.275 0 .5-.224.5-.5v-3c0-.276-.225-.5-.5-.5z"/><path d="m10 20h-1.5c-.827 0-1.5-.673-1.5-1.5v-3c0-.827.673-1.5 1.5-1.5h1.5c.827 0 1.5.673 1.5 1.5v3c0 .827-.673 1.5-1.5 1.5zm-1.5-5c-.275 0-.5.224-.5.5v3c0 .276.225.5.5.5h1.5c.275 0 .5-.224.5-.5v-3c0-.276-.225-.5-.5-.5z"/><path d="m12 7c-1.654 0-3-1.346-3-3s1.346-3 3-3 3 1.346 3 3-1.346 3-3 3zm0-5c-1.103 0-2 .897-2 2s.897 2 2 2 2-.897 2-2-.897-2-2-2z"/><path d="m21.5 23h-19c-1.379 0-2.5-1.122-2.5-2.5v-8c0-1.378 1.121-2.5 2.5-2.5h19c1.379 0 2.5 1.122 2.5 2.5v8c0 1.378-1.121 2.5-2.5 2.5zm-19-12c-.827 0-1.5.673-1.5 1.5v8c0 .827.673 1.5 1.5 1.5h19c.827 0 1.5-.673 1.5-1.5v-8c0-.827-.673-1.5-1.5-1.5z"/><path d="m6.5 11c-.07 0-.142-.015-.21-.046-.25-.116-.359-.413-.244-.664l3-6.5c.116-.251.413-.359.664-.244.25.116.359.413.244.664l-3 6.5c-.085.183-.266.29-.454.29z"/><path d="m17.5 11c-.188 0-.369-.107-.454-.291l-3-6.5c-.115-.25-.006-.548.244-.664.251-.115.548-.007.664.245l3 6.5c.115.25.006.548-.244.664-.068.031-.14.046-.21.046z"/></svg>